G04 #@! TF.GenerationSoftware,KiCad,Pcbnew,(5.0.1)-4*
G04 #@! TF.CreationDate,2020-10-18T21:08:22+02:00*
G04 #@! TF.ProjectId,Linky_hot_water_controller,4C696E6B795F686F745F77617465725F,rev?*
G04 #@! TF.SameCoordinates,PX6422c40PY7270e00*
G04 #@! TF.FileFunction,Legend,Bot*
G04 #@! TF.FilePolarity,Positive*
%FSLAX46Y46*%
G04 Gerber Fmt 4.6, Leading zero omitted, Abs format (unit mm)*
G04 Created by KiCad (PCBNEW (5.0.1)-4) date 18/10/2020 21:08:22*
%MOMM*%
%LPD*%
G01*
G04 APERTURE LIST*
%ADD10C,0.700000*%
G04 APERTURE END LIST*
D10*
X10642857Y41085715D02*
X8357142Y41085715D01*
X10692857Y36285715D02*
X8407142Y36285715D01*
X9550000Y35142858D02*
X9550000Y37428572D01*
X23642857Y6500000D02*
X26642857Y6500000D01*
X25642857Y7928572D02*
X23642857Y7928572D01*
X25357142Y7928572D02*
X25500000Y8071429D01*
X25642857Y8357143D01*
X25642857Y8785715D01*
X25500000Y9071429D01*
X25214285Y9214286D01*
X23642857Y9214286D01*
X25642857Y10642858D02*
X23642857Y10642858D01*
X25357142Y10642858D02*
X25500000Y10785715D01*
X25642857Y11071429D01*
X25642857Y11500000D01*
X25500000Y11785715D01*
X25214285Y11928572D01*
X23642857Y11928572D01*
X23642857Y13785715D02*
X23785714Y13500000D01*
X23928571Y13357143D01*
X24214285Y13214286D01*
X25071428Y13214286D01*
X25357142Y13357143D01*
X25500000Y13500000D01*
X25642857Y13785715D01*
X25642857Y14214286D01*
X25500000Y14500000D01*
X25357142Y14642858D01*
X25071428Y14785715D01*
X24214285Y14785715D01*
X23928571Y14642858D01*
X23785714Y14500000D01*
X23642857Y14214286D01*
X23642857Y13785715D01*
X26500000Y17642858D02*
X26642857Y17357143D01*
X26642857Y16928572D01*
X26500000Y16500000D01*
X26214285Y16214286D01*
X25928571Y16071429D01*
X25357142Y15928572D01*
X24928571Y15928572D01*
X24357142Y16071429D01*
X24071428Y16214286D01*
X23785714Y16500000D01*
X23642857Y16928572D01*
X23642857Y17214286D01*
X23785714Y17642858D01*
X23928571Y17785715D01*
X24928571Y17785715D01*
X24928571Y17214286D01*
X23642857Y19071429D02*
X25642857Y19071429D01*
X25071428Y19071429D02*
X25357142Y19214286D01*
X25500000Y19357143D01*
X25642857Y19642858D01*
X25642857Y19928572D01*
X23785714Y22071429D02*
X23642857Y21785715D01*
X23642857Y21214286D01*
X23785714Y20928572D01*
X24071428Y20785715D01*
X25214285Y20785715D01*
X25500000Y20928572D01*
X25642857Y21214286D01*
X25642857Y21785715D01*
X25500000Y22071429D01*
X25214285Y22214286D01*
X24928571Y22214286D01*
X24642857Y20785715D01*
X23785714Y24642858D02*
X23642857Y24357143D01*
X23642857Y23785715D01*
X23785714Y23500000D01*
X24071428Y23357143D01*
X25214285Y23357143D01*
X25500000Y23500000D01*
X25642857Y23785715D01*
X25642857Y24357143D01*
X25500000Y24642858D01*
X25214285Y24785715D01*
X24928571Y24785715D01*
X24642857Y23357143D01*
X25642857Y26071429D02*
X23642857Y26071429D01*
X25357142Y26071429D02*
X25500000Y26214286D01*
X25642857Y26500000D01*
X25642857Y26928572D01*
X25500000Y27214286D01*
X25214285Y27357143D01*
X23642857Y27357143D01*
X26642857Y28357143D02*
X26642857Y30071429D01*
X23642857Y29214286D02*
X26642857Y29214286D01*
X23785714Y32214286D02*
X23642857Y31928572D01*
X23642857Y31357143D01*
X23785714Y31071429D01*
X24071428Y30928572D01*
X25214285Y30928572D01*
X25500000Y31071429D01*
X25642857Y31357143D01*
X25642857Y31928572D01*
X25500000Y32214286D01*
X25214285Y32357143D01*
X24928571Y32357143D01*
X24642857Y30928572D01*
X23785714Y34928572D02*
X23642857Y34642858D01*
X23642857Y34071429D01*
X23785714Y33785715D01*
X23928571Y33642858D01*
X24214285Y33500000D01*
X25071428Y33500000D01*
X25357142Y33642858D01*
X25500000Y33785715D01*
X25642857Y34071429D01*
X25642857Y34642858D01*
X25500000Y34928572D01*
X23642857Y36214286D02*
X26642857Y36214286D01*
X23642857Y37500000D02*
X25214285Y37500000D01*
X25500000Y37357143D01*
X25642857Y37071429D01*
X25642857Y36642858D01*
X25500000Y36357143D01*
X25357142Y36214286D01*
M02*
