G04 #@! TF.GenerationSoftware,KiCad,Pcbnew,(5.0.1)-4*
G04 #@! TF.CreationDate,2020-10-18T21:08:22+02:00*
G04 #@! TF.ProjectId,Linky_hot_water_controller,4C696E6B795F686F745F77617465725F,rev?*
G04 #@! TF.SameCoordinates,PX6422c40PY7270e00*
G04 #@! TF.FileFunction,Copper,L2,Bot,Signal*
G04 #@! TF.FilePolarity,Positive*
%FSLAX46Y46*%
G04 Gerber Fmt 4.6, Leading zero omitted, Abs format (unit mm)*
G04 Created by KiCad (PCBNEW (5.0.1)-4) date 18/10/2020 21:08:22*
%MOMM*%
%LPD*%
G01*
G04 APERTURE LIST*
G04 #@! TA.AperFunction,ComponentPad*
%ADD10R,1.600000X1.600000*%
G04 #@! TD*
G04 #@! TA.AperFunction,ComponentPad*
%ADD11C,1.600000*%
G04 #@! TD*
G04 #@! TA.AperFunction,ComponentPad*
%ADD12R,2.400000X2.400000*%
G04 #@! TD*
G04 #@! TA.AperFunction,ComponentPad*
%ADD13O,2.400000X2.400000*%
G04 #@! TD*
G04 #@! TA.AperFunction,ComponentPad*
%ADD14C,2.000000*%
G04 #@! TD*
G04 #@! TA.AperFunction,ComponentPad*
%ADD15R,3.000000X3.000000*%
G04 #@! TD*
G04 #@! TA.AperFunction,ComponentPad*
%ADD16C,3.000000*%
G04 #@! TD*
G04 #@! TA.AperFunction,ComponentPad*
%ADD17O,1.700000X1.700000*%
G04 #@! TD*
G04 #@! TA.AperFunction,ComponentPad*
%ADD18R,1.700000X1.700000*%
G04 #@! TD*
G04 #@! TA.AperFunction,ComponentPad*
%ADD19R,2.000000X1.905000*%
G04 #@! TD*
G04 #@! TA.AperFunction,ComponentPad*
%ADD20O,2.000000X1.905000*%
G04 #@! TD*
G04 #@! TA.AperFunction,ComponentPad*
%ADD21O,1.600000X1.600000*%
G04 #@! TD*
G04 #@! TA.AperFunction,Conductor*
%ADD22C,0.600000*%
G04 #@! TD*
G04 #@! TA.AperFunction,Conductor*
%ADD23C,1.600000*%
G04 #@! TD*
G04 #@! TA.AperFunction,Conductor*
%ADD24C,0.254000*%
G04 #@! TD*
G04 APERTURE END LIST*
D10*
G04 #@! TO.P,C1,1*
G04 #@! TO.N,+6V*
X42320000Y29830000D03*
D11*
G04 #@! TO.P,C1,2*
G04 #@! TO.N,GND*
X42320000Y27330000D03*
G04 #@! TD*
D12*
G04 #@! TO.P,D1,1*
G04 #@! TO.N,+BATT*
X11840000Y33640000D03*
D13*
G04 #@! TO.P,D1,2*
G04 #@! TO.N,+6V*
X11840000Y43800000D03*
G04 #@! TD*
D14*
G04 #@! TO.P,F1,1*
G04 #@! TO.N,Net-(F1-Pad1)*
X4220000Y29830000D03*
G04 #@! TO.P,F1,2*
G04 #@! TO.N,+BATT*
X4210000Y24750000D03*
G04 #@! TD*
D15*
G04 #@! TO.P,J1,1*
G04 #@! TO.N,GND*
X5490000Y41260000D03*
D16*
G04 #@! TO.P,J1,2*
G04 #@! TO.N,Net-(F1-Pad1)*
X5490000Y36180000D03*
G04 #@! TD*
D17*
G04 #@! TO.P,J2,6*
G04 #@! TO.N,+BATT*
X9300000Y5700000D03*
G04 #@! TO.P,J2,5*
X9300000Y8240000D03*
G04 #@! TO.P,J2,4*
X9300000Y10780000D03*
G04 #@! TO.P,J2,3*
X9300000Y13320000D03*
G04 #@! TO.P,J2,2*
X9300000Y15860000D03*
D18*
G04 #@! TO.P,J2,1*
X9300000Y18400000D03*
G04 #@! TD*
G04 #@! TO.P,J3,1*
G04 #@! TO.N,Net-(J3-Pad1)*
X6760000Y18400000D03*
D17*
G04 #@! TO.P,J3,2*
X6760000Y15860000D03*
G04 #@! TO.P,J3,3*
X6760000Y13320000D03*
G04 #@! TO.P,J3,4*
X6760000Y10780000D03*
G04 #@! TO.P,J3,5*
X6760000Y8240000D03*
G04 #@! TO.P,J3,6*
X6760000Y5700000D03*
G04 #@! TD*
G04 #@! TO.P,J4,6*
G04 #@! TO.N,Net-(A1-Pad15)*
X11840000Y5700000D03*
G04 #@! TO.P,J4,5*
G04 #@! TO.N,Net-(A1-Pad14)*
X11840000Y8240000D03*
G04 #@! TO.P,J4,4*
G04 #@! TO.N,Net-(A1-Pad13)*
X11840000Y10780000D03*
G04 #@! TO.P,J4,3*
G04 #@! TO.N,Net-(A1-Pad12)*
X11840000Y13320000D03*
G04 #@! TO.P,J4,2*
G04 #@! TO.N,Net-(A1-Pad11)*
X11840000Y15860000D03*
D18*
G04 #@! TO.P,J4,1*
G04 #@! TO.N,Net-(A1-Pad10)*
X11840000Y18400000D03*
G04 #@! TD*
G04 #@! TO.P,J5,1*
G04 #@! TO.N,GND*
X39780000Y5700000D03*
D17*
G04 #@! TO.P,J5,2*
G04 #@! TO.N,Net-(A1-Pad19)*
X39780000Y8240000D03*
G04 #@! TO.P,J5,3*
G04 #@! TO.N,Net-(A1-Pad20)*
X39780000Y10780000D03*
G04 #@! TO.P,J5,4*
G04 #@! TO.N,Net-(A1-Pad21)*
X39780000Y13320000D03*
G04 #@! TO.P,J5,5*
G04 #@! TO.N,Net-(A1-Pad22)*
X39780000Y15860000D03*
G04 #@! TO.P,J5,6*
G04 #@! TO.N,Net-(A1-Pad23)*
X39780000Y18400000D03*
G04 #@! TO.P,J5,7*
G04 #@! TO.N,Net-(A1-Pad24)*
X39780000Y20940000D03*
G04 #@! TD*
D18*
G04 #@! TO.P,J6,1*
G04 #@! TO.N,GND*
X44860000Y8240000D03*
D17*
G04 #@! TO.P,J6,2*
X44860000Y10780000D03*
G04 #@! TO.P,J6,3*
X44860000Y13320000D03*
G04 #@! TO.P,J6,4*
X44860000Y15860000D03*
G04 #@! TO.P,J6,5*
X44860000Y18400000D03*
G04 #@! TO.P,J6,6*
X44860000Y20940000D03*
G04 #@! TD*
D18*
G04 #@! TO.P,J7,1*
G04 #@! TO.N,+5V*
X42320000Y20940000D03*
D17*
G04 #@! TO.P,J7,2*
X42320000Y18400000D03*
G04 #@! TO.P,J7,3*
X42320000Y15860000D03*
G04 #@! TO.P,J7,4*
X42320000Y13320000D03*
G04 #@! TO.P,J7,5*
X42320000Y10780000D03*
G04 #@! TO.P,J7,6*
X42320000Y8240000D03*
G04 #@! TD*
D19*
G04 #@! TO.P,Q1,1*
G04 #@! TO.N,/Enable_servos*
X10570000Y23480000D03*
D20*
G04 #@! TO.P,Q1,2*
G04 #@! TO.N,Net-(J3-Pad1)*
X10570000Y26020000D03*
G04 #@! TO.P,Q1,3*
G04 #@! TO.N,GND*
X10570000Y28560000D03*
G04 #@! TD*
D11*
G04 #@! TO.P,R1,1*
G04 #@! TO.N,/Enable_servos*
X14380000Y22210000D03*
D21*
G04 #@! TO.P,R1,2*
G04 #@! TO.N,GND*
X14380000Y29830000D03*
G04 #@! TD*
G04 #@! TO.P,R2,2*
G04 #@! TO.N,/V_battery_control*
X41050000Y34910000D03*
D11*
G04 #@! TO.P,R2,1*
G04 #@! TO.N,+6V*
X41050000Y42530000D03*
G04 #@! TD*
G04 #@! TO.P,R3,1*
G04 #@! TO.N,/V_battery_control*
X37240000Y32370000D03*
D21*
G04 #@! TO.P,R3,2*
G04 #@! TO.N,GND*
X37240000Y39990000D03*
G04 #@! TD*
D10*
G04 #@! TO.P,A1,1*
G04 #@! TO.N,N/C*
X18555001Y41260000D03*
D21*
G04 #@! TO.P,A1,17*
X33795001Y8240000D03*
G04 #@! TO.P,A1,2*
X18555001Y38720000D03*
G04 #@! TO.P,A1,18*
X33795001Y10780000D03*
G04 #@! TO.P,A1,3*
X18555001Y36180000D03*
G04 #@! TO.P,A1,19*
G04 #@! TO.N,Net-(A1-Pad19)*
X33795001Y13320000D03*
G04 #@! TO.P,A1,4*
G04 #@! TO.N,GND*
X18555001Y33640000D03*
G04 #@! TO.P,A1,20*
G04 #@! TO.N,Net-(A1-Pad20)*
X33795001Y15860000D03*
G04 #@! TO.P,A1,5*
G04 #@! TO.N,N/C*
X18555001Y31100000D03*
G04 #@! TO.P,A1,21*
G04 #@! TO.N,Net-(A1-Pad21)*
X33795001Y18400000D03*
G04 #@! TO.P,A1,6*
G04 #@! TO.N,N/C*
X18555001Y28560000D03*
G04 #@! TO.P,A1,22*
G04 #@! TO.N,Net-(A1-Pad22)*
X33795001Y20940000D03*
G04 #@! TO.P,A1,7*
G04 #@! TO.N,N/C*
X18555001Y26020000D03*
G04 #@! TO.P,A1,23*
G04 #@! TO.N,Net-(A1-Pad23)*
X33795001Y23480000D03*
G04 #@! TO.P,A1,8*
G04 #@! TO.N,N/C*
X18555001Y23480000D03*
G04 #@! TO.P,A1,24*
G04 #@! TO.N,Net-(A1-Pad24)*
X33795001Y26020000D03*
G04 #@! TO.P,A1,9*
G04 #@! TO.N,/Enable_servos*
X18555001Y20940000D03*
G04 #@! TO.P,A1,25*
G04 #@! TO.N,/V_battery_control*
X33795001Y28560000D03*
G04 #@! TO.P,A1,10*
G04 #@! TO.N,Net-(A1-Pad10)*
X18555001Y18400000D03*
G04 #@! TO.P,A1,26*
G04 #@! TO.N,N/C*
X33795001Y31100000D03*
G04 #@! TO.P,A1,11*
G04 #@! TO.N,Net-(A1-Pad11)*
X18555001Y15860000D03*
G04 #@! TO.P,A1,27*
G04 #@! TO.N,+5V*
X33795001Y33640000D03*
G04 #@! TO.P,A1,12*
G04 #@! TO.N,Net-(A1-Pad12)*
X18555001Y13320000D03*
G04 #@! TO.P,A1,28*
G04 #@! TO.N,N/C*
X33795001Y36180000D03*
G04 #@! TO.P,A1,13*
G04 #@! TO.N,Net-(A1-Pad13)*
X18555001Y10780000D03*
G04 #@! TO.P,A1,29*
G04 #@! TO.N,GND*
X33795001Y38720000D03*
G04 #@! TO.P,A1,14*
G04 #@! TO.N,Net-(A1-Pad14)*
X18555001Y8240000D03*
G04 #@! TO.P,A1,30*
G04 #@! TO.N,+6V*
X33795001Y41260000D03*
G04 #@! TO.P,A1,15*
G04 #@! TO.N,Net-(A1-Pad15)*
X18555001Y5700000D03*
G04 #@! TO.P,A1,16*
G04 #@! TO.N,N/C*
X33795001Y5700000D03*
G04 #@! TD*
D22*
G04 #@! TO.N,Net-(A1-Pad19)*
X31525000Y3160000D02*
X34784402Y3160000D01*
X30890000Y3795000D02*
X31525000Y3160000D01*
X30890000Y11546369D02*
X30890000Y3795000D01*
X32663631Y13320000D02*
X30890000Y11546369D01*
X33795001Y13320000D02*
X32663631Y13320000D01*
X38999003Y8240000D02*
X39780000Y8240000D01*
X34784402Y4025399D02*
X38999003Y8240000D01*
X34784402Y3160000D02*
X34784402Y4025399D01*
G04 #@! TO.N,Net-(A1-Pad20)*
X38930001Y11629999D02*
X39780000Y10780000D01*
X38429429Y11629999D02*
X38930001Y11629999D01*
X34999427Y15060001D02*
X38429429Y11629999D01*
X34595000Y15060001D02*
X34999427Y15060001D01*
X33795001Y15860000D02*
X34595000Y15060001D01*
G04 #@! TO.N,Net-(A1-Pad21)*
X38577919Y13320000D02*
X39780000Y13320000D01*
X37929999Y13967920D02*
X38577919Y13320000D01*
X37929999Y15170001D02*
X37929999Y13967920D01*
X35499999Y17600001D02*
X37929999Y15170001D01*
X34595000Y17600001D02*
X35499999Y17600001D01*
X33795001Y18400000D02*
X34595000Y17600001D01*
G04 #@! TO.N,Net-(A1-Pad22)*
X38930001Y16709999D02*
X39780000Y15860000D01*
X38429430Y16709999D02*
X38930001Y16709999D01*
X34999427Y20140001D02*
X38429430Y16709999D01*
X34595000Y20140001D02*
X34999427Y20140001D01*
X33795001Y20940000D02*
X34595000Y20140001D01*
G04 #@! TO.N,Net-(A1-Pad23)*
X38577919Y18400000D02*
X39780000Y18400000D01*
X36679980Y20297939D02*
X38577919Y18400000D01*
X36679980Y22389020D02*
X36679980Y20297939D01*
X35589000Y23480000D02*
X36679980Y22389020D01*
X33795001Y23480000D02*
X35589000Y23480000D01*
G04 #@! TO.N,Net-(A1-Pad24)*
X38930001Y21789999D02*
X39780000Y20940000D01*
X37979990Y22740010D02*
X38930001Y21789999D01*
X37979990Y25280010D02*
X37979990Y22740010D01*
X37240000Y26020000D02*
X37979990Y25280010D01*
X33795001Y26020000D02*
X37240000Y26020000D01*
D23*
G04 #@! TO.N,/Enable_servos*
X14380000Y22210000D02*
X15650000Y20940000D01*
X15650000Y20940000D02*
X18555001Y20940000D01*
X10570000Y23480000D02*
X13110000Y23480000D01*
X13110000Y23480000D02*
X14380000Y22210000D01*
G04 #@! TO.N,/V_battery_control*
X37240000Y32370000D02*
X39780000Y34910000D01*
X39780000Y34910000D02*
X41050000Y34910000D01*
X33795001Y28560000D02*
X34926371Y28560000D01*
X34926371Y28560000D02*
X37240000Y30873629D01*
X37240000Y30873629D02*
X37240000Y31238630D01*
X37240000Y31238630D02*
X37240000Y32370000D01*
G04 #@! TO.N,Net-(A1-Pad10)*
X11840000Y18400000D02*
X18555001Y18400000D01*
G04 #@! TO.N,Net-(A1-Pad11)*
X18555001Y15860000D02*
X11840000Y15860000D01*
G04 #@! TO.N,+5V*
X39780000Y26020000D02*
X42320000Y23480000D01*
X39780000Y31590002D02*
X39780000Y26020000D01*
X40320008Y32130001D02*
X40319999Y32130001D01*
X40320008Y32130010D02*
X40320008Y32130001D01*
X40319999Y32130001D02*
X39780000Y31590002D01*
X43350001Y36014001D02*
X43350001Y33805999D01*
X42320000Y37044002D02*
X43350001Y36014001D01*
X42320000Y37450000D02*
X42320000Y37044002D01*
X38736371Y37450000D02*
X42320000Y37450000D01*
X34926371Y33640000D02*
X38736371Y37450000D01*
X33795001Y33640000D02*
X34926371Y33640000D01*
X43350001Y33805999D02*
X41914002Y32370000D01*
X41914002Y32370000D02*
X41914002Y32130010D01*
X41914002Y32130010D02*
X40320008Y32130010D01*
X40320008Y32130010D02*
X39780000Y31590002D01*
X42320000Y21878002D02*
X42320000Y20940000D01*
X42320000Y20940000D02*
X42320000Y8240000D01*
X42320000Y23480000D02*
X42320000Y21878002D01*
G04 #@! TO.N,Net-(A1-Pad12)*
X11840000Y13320000D02*
X18555001Y13320000D01*
G04 #@! TO.N,Net-(A1-Pad13)*
X18555001Y10780000D02*
X11840000Y10780000D01*
G04 #@! TO.N,Net-(A1-Pad14)*
X11840000Y8240000D02*
X18555001Y8240000D01*
G04 #@! TO.N,+6V*
X45990000Y31100000D02*
X44720000Y29830000D01*
X34700000Y42164999D02*
X35065001Y42530000D01*
X33795001Y41260000D02*
X34700000Y42164999D01*
X32160000Y43800000D02*
X33795001Y43800000D01*
X31255001Y43800000D02*
X32160000Y43800000D01*
X32160000Y43800000D02*
X32160000Y42895001D01*
X32160000Y42895001D02*
X32890002Y42164999D01*
X32890002Y42164999D02*
X34700000Y42164999D01*
X33795001Y43800000D02*
X35065001Y42530000D01*
X42320000Y29830000D02*
X44720000Y29830000D01*
X44720000Y29830000D02*
X45650011Y30760011D01*
X45650011Y30760011D02*
X45650011Y40469989D01*
X45650011Y40469989D02*
X43590000Y42530000D01*
X41050000Y42530000D02*
X43590000Y42530000D01*
X35065001Y42530000D02*
X41050000Y42530000D01*
X11840000Y43800000D02*
X31255001Y43800000D01*
X31255001Y43800000D02*
X33795001Y41260000D01*
G04 #@! TO.N,Net-(A1-Pad15)*
X18555001Y5700000D02*
X11840000Y5700000D01*
G04 #@! TO.N,GND*
X33795001Y38720000D02*
X35970000Y38720000D01*
X35970000Y38720000D02*
X37240000Y39990000D01*
X42320000Y27330000D02*
X44860000Y24790000D01*
X44860000Y20940000D02*
X44860000Y8240000D01*
X18555001Y33640000D02*
X19686371Y33640000D01*
X19686371Y33640000D02*
X24766371Y38720000D01*
X24766371Y38720000D02*
X32663631Y38720000D01*
X32663631Y38720000D02*
X33795001Y38720000D01*
X15788630Y32370000D02*
X17058630Y33640000D01*
X14380000Y30961370D02*
X15788630Y32370000D01*
X14193998Y37450000D02*
X14193998Y36340001D01*
X14193998Y36340001D02*
X14240001Y36340001D01*
X14240001Y36340001D02*
X15788630Y34791372D01*
X15788630Y34791372D02*
X15788630Y32370000D01*
X5490000Y41260000D02*
X10383998Y41260000D01*
X10383998Y41260000D02*
X14193998Y37450000D01*
X14380000Y29830000D02*
X14380000Y30961370D01*
X17058630Y33640000D02*
X17423631Y33640000D01*
X17423631Y33640000D02*
X18555001Y33640000D01*
X10570000Y28560000D02*
X13110000Y28560000D01*
X13110000Y28560000D02*
X14380000Y29830000D01*
X39780000Y3250000D02*
X39780000Y5700000D01*
X5490000Y41260000D02*
X2390000Y41260000D01*
X2390000Y41260000D02*
X1680000Y40550000D01*
X1680000Y40550000D02*
X1680000Y4049293D01*
X1680000Y4049293D02*
X4679304Y1049989D01*
X4679304Y1049989D02*
X37579989Y1049989D01*
X37579989Y1049989D02*
X39780000Y3250000D01*
X42230000Y5700000D02*
X39780000Y5700000D01*
X44770000Y5700000D02*
X42230000Y5700000D01*
X44860000Y5790000D02*
X44770000Y5700000D01*
X44860000Y8240000D02*
X44860000Y5790000D01*
X44860000Y24790000D02*
X44860000Y20940000D01*
G04 #@! TO.N,+BATT*
X11840000Y33640000D02*
X4210000Y26010000D01*
X4210000Y26010000D02*
X4210000Y24750000D01*
X4210000Y24750000D02*
X4210000Y4771998D01*
X4210000Y4771998D02*
X5631999Y3349999D01*
X5631999Y3349999D02*
X8152080Y3349999D01*
X8152080Y3349999D02*
X9300000Y4497919D01*
X9300000Y4497919D02*
X9300000Y5700000D01*
X9300000Y18400000D02*
X9300000Y5700000D01*
G04 #@! TO.N,Net-(F1-Pad1)*
X5490000Y36180000D02*
X5490000Y31100000D01*
X5490000Y31100000D02*
X4220000Y29830000D01*
G04 #@! TO.N,Net-(J3-Pad1)*
X6760000Y18400000D02*
X6760000Y5700000D01*
X10570000Y26020000D02*
X8457498Y26020000D01*
X8457498Y26020000D02*
X6760000Y24322502D01*
X6760000Y24322502D02*
X6760000Y20850000D01*
X6760000Y20850000D02*
X6760000Y18400000D01*
G04 #@! TD*
D24*
G04 #@! TO.N,GND*
G36*
X9930608Y44590896D02*
X9773289Y43800000D01*
X9930608Y43009104D01*
X10378615Y42338615D01*
X11049104Y41890608D01*
X11640359Y41773000D01*
X12039641Y41773000D01*
X12630896Y41890608D01*
X13053525Y42173000D01*
X16934277Y42173000D01*
X16911800Y42060000D01*
X16911800Y40460000D01*
X16975985Y40137321D01*
X17158768Y39863767D01*
X17299593Y39769671D01*
X17022401Y39354824D01*
X16896127Y38720000D01*
X17022401Y38085176D01*
X17382000Y37546999D01*
X17527169Y37450000D01*
X17382000Y37353001D01*
X17022401Y36814824D01*
X16896127Y36180000D01*
X17022401Y35545176D01*
X17382000Y35006999D01*
X17920177Y34647400D01*
X18394759Y34553000D01*
X18715243Y34553000D01*
X19189825Y34647400D01*
X19728002Y35006999D01*
X20087601Y35545176D01*
X20213875Y36180000D01*
X20087601Y36814824D01*
X19728002Y37353001D01*
X19582833Y37450000D01*
X19728002Y37546999D01*
X20087601Y38085176D01*
X20213875Y38720000D01*
X20087601Y39354824D01*
X19810409Y39769671D01*
X19951234Y39863767D01*
X20134017Y40137321D01*
X20198202Y40460000D01*
X20198202Y42060000D01*
X20175725Y42173000D01*
X30581077Y42173000D01*
X30896229Y41857847D01*
X30987000Y41722000D01*
X31122846Y41631230D01*
X31626230Y41127847D01*
X31717001Y40991998D01*
X31852848Y40901228D01*
X32531229Y40222847D01*
X32622000Y40086999D01*
X33160177Y39727400D01*
X33634759Y39633000D01*
X33634763Y39633000D01*
X33795000Y39601127D01*
X33795001Y39601127D01*
X33955239Y39633000D01*
X33955243Y39633000D01*
X34429825Y39727400D01*
X34968002Y40086999D01*
X35058774Y40222849D01*
X35737154Y40901228D01*
X35739806Y40903000D01*
X42916076Y40903000D01*
X44023012Y39796063D01*
X44023012Y37641914D01*
X43920262Y37744664D01*
X43852600Y38084824D01*
X43493001Y38623001D01*
X42954824Y38982600D01*
X42480242Y39077000D01*
X42320000Y39108874D01*
X42159758Y39077000D01*
X38896613Y39077000D01*
X38736371Y39108874D01*
X38101547Y38982600D01*
X37699216Y38713771D01*
X37699215Y38713770D01*
X37563370Y38623001D01*
X37472601Y38487156D01*
X35406022Y36420576D01*
X35327601Y36814824D01*
X34968002Y37353001D01*
X34429825Y37712600D01*
X33955243Y37807000D01*
X33634759Y37807000D01*
X33160177Y37712600D01*
X32622000Y37353001D01*
X32262401Y36814824D01*
X32136127Y36180000D01*
X32262401Y35545176D01*
X32622000Y35006999D01*
X32767169Y34910000D01*
X32622000Y34813001D01*
X32262401Y34274824D01*
X32136127Y33640000D01*
X32262401Y33005176D01*
X32622000Y32466999D01*
X32767169Y32370000D01*
X32622000Y32273001D01*
X32262401Y31734824D01*
X32136127Y31100000D01*
X32262401Y30465176D01*
X32622000Y29926999D01*
X32767169Y29830000D01*
X32622000Y29733001D01*
X32262401Y29194824D01*
X32136127Y28560000D01*
X32262401Y27925176D01*
X32622000Y27386999D01*
X32767169Y27290000D01*
X32622000Y27193001D01*
X32262401Y26654824D01*
X32136127Y26020000D01*
X32262401Y25385176D01*
X32622000Y24846999D01*
X32767169Y24750000D01*
X32622000Y24653001D01*
X32262401Y24114824D01*
X32136127Y23480000D01*
X32262401Y22845176D01*
X32622000Y22306999D01*
X32767169Y22210000D01*
X32622000Y22113001D01*
X32262401Y21574824D01*
X32136127Y20940000D01*
X32262401Y20305176D01*
X32622000Y19766999D01*
X32767169Y19670000D01*
X32622000Y19573001D01*
X32262401Y19034824D01*
X32136127Y18400000D01*
X32262401Y17765176D01*
X32622000Y17226999D01*
X32767169Y17130000D01*
X32622000Y17033001D01*
X32262401Y16494824D01*
X32136127Y15860000D01*
X32262401Y15225176D01*
X32622000Y14686999D01*
X32767169Y14590000D01*
X32622000Y14493001D01*
X32597185Y14455862D01*
X32552632Y14447000D01*
X32223898Y14381611D01*
X32223897Y14381610D01*
X32223896Y14381610D01*
X32187783Y14357480D01*
X31851109Y14132522D01*
X31788233Y14038421D01*
X30171582Y12421769D01*
X30077478Y12358891D01*
X29884270Y12069733D01*
X29830359Y11989049D01*
X29828389Y11986101D01*
X29788865Y11787400D01*
X29740921Y11546369D01*
X29763000Y11435371D01*
X29763001Y3906003D01*
X29740921Y3795000D01*
X29828390Y3355266D01*
X29905811Y3239398D01*
X30077479Y2982478D01*
X30171581Y2919601D01*
X30649598Y2441585D01*
X30712478Y2347478D01*
X31085267Y2098389D01*
X31414001Y2033000D01*
X31414002Y2033000D01*
X31525000Y2010921D01*
X31635998Y2033000D01*
X34673403Y2033000D01*
X34784402Y2010921D01*
X34895401Y2033000D01*
X35224135Y2098389D01*
X35596924Y2347478D01*
X35846013Y2720267D01*
X35933481Y3160000D01*
X35911402Y3270999D01*
X35911402Y3558581D01*
X39058202Y6705380D01*
X39125667Y6660301D01*
X39614832Y6563000D01*
X39945168Y6563000D01*
X40434333Y6660301D01*
X40989049Y7030951D01*
X41050000Y7122170D01*
X41110951Y7030951D01*
X41665667Y6660301D01*
X42154832Y6563000D01*
X42485168Y6563000D01*
X42974333Y6660301D01*
X43529049Y7030951D01*
X43899699Y7585667D01*
X44029854Y8240000D01*
X43947000Y8656535D01*
X43947000Y10363465D01*
X44029854Y10780000D01*
X43947000Y11196535D01*
X43947000Y12903465D01*
X44029854Y13320000D01*
X43947000Y13736535D01*
X43947000Y15443465D01*
X44029854Y15860000D01*
X43947000Y16276535D01*
X43947000Y17983465D01*
X44029854Y18400000D01*
X43947000Y18816535D01*
X43947000Y19764304D01*
X43949016Y19767321D01*
X44013201Y20090000D01*
X44013201Y21790000D01*
X43949016Y22112679D01*
X43947000Y22115696D01*
X43947000Y23319764D01*
X43978873Y23480001D01*
X43947000Y23640238D01*
X43947000Y23640242D01*
X43852600Y24114824D01*
X43493001Y24653001D01*
X43357154Y24743771D01*
X41407000Y26693924D01*
X41407000Y28209276D01*
X41520000Y28186799D01*
X43120000Y28186799D01*
X43201448Y28203000D01*
X44559762Y28203000D01*
X44720000Y28171127D01*
X44880238Y28203000D01*
X44880242Y28203000D01*
X45354824Y28297400D01*
X45893001Y28656999D01*
X45983773Y28792849D01*
X46687164Y29496239D01*
X46823012Y29587010D01*
X46913783Y29722858D01*
X47098000Y29907075D01*
X47098001Y902000D01*
X902000Y902000D01*
X902000Y25113413D01*
X2383000Y25113413D01*
X2383000Y24386587D01*
X2583000Y23903744D01*
X2583001Y4932241D01*
X2551127Y4771998D01*
X2677400Y4137175D01*
X2787418Y3972522D01*
X3037000Y3598997D01*
X3172847Y3508227D01*
X4368227Y2312846D01*
X4458998Y2176998D01*
X4997175Y1817399D01*
X5471757Y1722999D01*
X5471760Y1722999D01*
X5631998Y1691126D01*
X5792236Y1722999D01*
X7991842Y1722999D01*
X8152080Y1691126D01*
X8312318Y1722999D01*
X8312322Y1722999D01*
X8786904Y1817399D01*
X9325081Y2176998D01*
X9415853Y2312848D01*
X10337153Y3234148D01*
X10473001Y3324918D01*
X10832600Y3863095D01*
X10919180Y4298362D01*
X11185667Y4120301D01*
X11674832Y4023000D01*
X12005168Y4023000D01*
X12256535Y4073000D01*
X18715243Y4073000D01*
X19189825Y4167400D01*
X19728002Y4526999D01*
X20087601Y5065176D01*
X20213875Y5700000D01*
X20087601Y6334824D01*
X19728002Y6873001D01*
X19582833Y6970000D01*
X19728002Y7066999D01*
X20087601Y7605176D01*
X20213875Y8240000D01*
X20087601Y8874824D01*
X19728002Y9413001D01*
X19582833Y9510000D01*
X19728002Y9606999D01*
X20087601Y10145176D01*
X20213875Y10780000D01*
X20087601Y11414824D01*
X19728002Y11953001D01*
X19582833Y12050000D01*
X19728002Y12146999D01*
X20087601Y12685176D01*
X20213875Y13320000D01*
X20087601Y13954824D01*
X19728002Y14493001D01*
X19582833Y14590000D01*
X19728002Y14686999D01*
X20087601Y15225176D01*
X20213875Y15860000D01*
X20087601Y16494824D01*
X19728002Y17033001D01*
X19582833Y17130000D01*
X19728002Y17226999D01*
X20087601Y17765176D01*
X20213875Y18400000D01*
X20087601Y19034824D01*
X19728002Y19573001D01*
X19582833Y19670000D01*
X19728002Y19766999D01*
X20087601Y20305176D01*
X20213875Y20940000D01*
X20087601Y21574824D01*
X19728002Y22113001D01*
X19582833Y22210000D01*
X19728002Y22306999D01*
X20087601Y22845176D01*
X20213875Y23480000D01*
X20087601Y24114824D01*
X19728002Y24653001D01*
X19582833Y24750000D01*
X19728002Y24846999D01*
X20087601Y25385176D01*
X20213875Y26020000D01*
X20087601Y26654824D01*
X19728002Y27193001D01*
X19582833Y27290000D01*
X19728002Y27386999D01*
X20087601Y27925176D01*
X20213875Y28560000D01*
X20087601Y29194824D01*
X19728002Y29733001D01*
X19582833Y29830000D01*
X19728002Y29926999D01*
X20087601Y30465176D01*
X20213875Y31100000D01*
X20087601Y31734824D01*
X19728002Y32273001D01*
X19189825Y32632600D01*
X18715243Y32727000D01*
X18394759Y32727000D01*
X17920177Y32632600D01*
X17382000Y32273001D01*
X17022401Y31734824D01*
X16896127Y31100000D01*
X17022401Y30465176D01*
X17382000Y29926999D01*
X17527169Y29830000D01*
X17382000Y29733001D01*
X17022401Y29194824D01*
X16896127Y28560000D01*
X17022401Y27925176D01*
X17382000Y27386999D01*
X17527169Y27290000D01*
X17382000Y27193001D01*
X17022401Y26654824D01*
X16896127Y26020000D01*
X17022401Y25385176D01*
X17382000Y24846999D01*
X17527169Y24750000D01*
X17382000Y24653001D01*
X17022401Y24114824D01*
X16896127Y23480000D01*
X17022401Y22845176D01*
X17208273Y22567000D01*
X16323925Y22567000D01*
X15759305Y23131619D01*
X15759304Y23131622D01*
X15301622Y23589304D01*
X15301620Y23589305D01*
X14373773Y24517151D01*
X14283001Y24653001D01*
X13744824Y25012600D01*
X13270242Y25107000D01*
X13270238Y25107000D01*
X13110000Y25138873D01*
X12949762Y25107000D01*
X12147639Y25107000D01*
X12293752Y25325674D01*
X12431862Y26020000D01*
X12293752Y26714326D01*
X11900448Y27302948D01*
X11311826Y27696252D01*
X10792763Y27799500D01*
X10347237Y27799500D01*
X9828174Y27696252D01*
X9754463Y27647000D01*
X8617740Y27647000D01*
X8457498Y27678874D01*
X8110845Y27609921D01*
X12097724Y31596799D01*
X13040000Y31596799D01*
X13362679Y31660984D01*
X13636233Y31843767D01*
X13819016Y32117321D01*
X13883201Y32440000D01*
X13883201Y34840000D01*
X13819016Y35162679D01*
X13636233Y35436233D01*
X13362679Y35619016D01*
X13040000Y35683201D01*
X10640000Y35683201D01*
X10317321Y35619016D01*
X10043767Y35436233D01*
X9860984Y35162679D01*
X9796799Y34840000D01*
X9796799Y33897724D01*
X7124020Y31224945D01*
X7117000Y31260237D01*
X7117000Y34516124D01*
X7462736Y34861860D01*
X7817000Y35717131D01*
X7817000Y36642869D01*
X7462736Y37498140D01*
X6808140Y38152736D01*
X5952869Y38507000D01*
X5027131Y38507000D01*
X4171860Y38152736D01*
X3517264Y37498140D01*
X3163000Y36642869D01*
X3163000Y35717131D01*
X3517264Y34861860D01*
X3863000Y34516124D01*
X3863001Y31773925D01*
X3667932Y31578857D01*
X3185088Y31378856D01*
X2671144Y30864912D01*
X2393000Y30193413D01*
X2393000Y29466587D01*
X2671144Y28795088D01*
X3185088Y28281144D01*
X3856587Y28003000D01*
X3902076Y28003000D01*
X3172850Y27273774D01*
X3036999Y27183001D01*
X2677400Y26644823D01*
X2583000Y26170241D01*
X2583000Y26170238D01*
X2551127Y26010000D01*
X2583000Y25849762D01*
X2583000Y25596256D01*
X2383000Y25113413D01*
X902000Y25113413D01*
X902000Y45098000D01*
X10269444Y45098000D01*
X9930608Y44590896D01*
X9930608Y44590896D01*
G37*
X9930608Y44590896D02*
X9773289Y43800000D01*
X9930608Y43009104D01*
X10378615Y42338615D01*
X11049104Y41890608D01*
X11640359Y41773000D01*
X12039641Y41773000D01*
X12630896Y41890608D01*
X13053525Y42173000D01*
X16934277Y42173000D01*
X16911800Y42060000D01*
X16911800Y40460000D01*
X16975985Y40137321D01*
X17158768Y39863767D01*
X17299593Y39769671D01*
X17022401Y39354824D01*
X16896127Y38720000D01*
X17022401Y38085176D01*
X17382000Y37546999D01*
X17527169Y37450000D01*
X17382000Y37353001D01*
X17022401Y36814824D01*
X16896127Y36180000D01*
X17022401Y35545176D01*
X17382000Y35006999D01*
X17920177Y34647400D01*
X18394759Y34553000D01*
X18715243Y34553000D01*
X19189825Y34647400D01*
X19728002Y35006999D01*
X20087601Y35545176D01*
X20213875Y36180000D01*
X20087601Y36814824D01*
X19728002Y37353001D01*
X19582833Y37450000D01*
X19728002Y37546999D01*
X20087601Y38085176D01*
X20213875Y38720000D01*
X20087601Y39354824D01*
X19810409Y39769671D01*
X19951234Y39863767D01*
X20134017Y40137321D01*
X20198202Y40460000D01*
X20198202Y42060000D01*
X20175725Y42173000D01*
X30581077Y42173000D01*
X30896229Y41857847D01*
X30987000Y41722000D01*
X31122846Y41631230D01*
X31626230Y41127847D01*
X31717001Y40991998D01*
X31852848Y40901228D01*
X32531229Y40222847D01*
X32622000Y40086999D01*
X33160177Y39727400D01*
X33634759Y39633000D01*
X33634763Y39633000D01*
X33795000Y39601127D01*
X33795001Y39601127D01*
X33955239Y39633000D01*
X33955243Y39633000D01*
X34429825Y39727400D01*
X34968002Y40086999D01*
X35058774Y40222849D01*
X35737154Y40901228D01*
X35739806Y40903000D01*
X42916076Y40903000D01*
X44023012Y39796063D01*
X44023012Y37641914D01*
X43920262Y37744664D01*
X43852600Y38084824D01*
X43493001Y38623001D01*
X42954824Y38982600D01*
X42480242Y39077000D01*
X42320000Y39108874D01*
X42159758Y39077000D01*
X38896613Y39077000D01*
X38736371Y39108874D01*
X38101547Y38982600D01*
X37699216Y38713771D01*
X37699215Y38713770D01*
X37563370Y38623001D01*
X37472601Y38487156D01*
X35406022Y36420576D01*
X35327601Y36814824D01*
X34968002Y37353001D01*
X34429825Y37712600D01*
X33955243Y37807000D01*
X33634759Y37807000D01*
X33160177Y37712600D01*
X32622000Y37353001D01*
X32262401Y36814824D01*
X32136127Y36180000D01*
X32262401Y35545176D01*
X32622000Y35006999D01*
X32767169Y34910000D01*
X32622000Y34813001D01*
X32262401Y34274824D01*
X32136127Y33640000D01*
X32262401Y33005176D01*
X32622000Y32466999D01*
X32767169Y32370000D01*
X32622000Y32273001D01*
X32262401Y31734824D01*
X32136127Y31100000D01*
X32262401Y30465176D01*
X32622000Y29926999D01*
X32767169Y29830000D01*
X32622000Y29733001D01*
X32262401Y29194824D01*
X32136127Y28560000D01*
X32262401Y27925176D01*
X32622000Y27386999D01*
X32767169Y27290000D01*
X32622000Y27193001D01*
X32262401Y26654824D01*
X32136127Y26020000D01*
X32262401Y25385176D01*
X32622000Y24846999D01*
X32767169Y24750000D01*
X32622000Y24653001D01*
X32262401Y24114824D01*
X32136127Y23480000D01*
X32262401Y22845176D01*
X32622000Y22306999D01*
X32767169Y22210000D01*
X32622000Y22113001D01*
X32262401Y21574824D01*
X32136127Y20940000D01*
X32262401Y20305176D01*
X32622000Y19766999D01*
X32767169Y19670000D01*
X32622000Y19573001D01*
X32262401Y19034824D01*
X32136127Y18400000D01*
X32262401Y17765176D01*
X32622000Y17226999D01*
X32767169Y17130000D01*
X32622000Y17033001D01*
X32262401Y16494824D01*
X32136127Y15860000D01*
X32262401Y15225176D01*
X32622000Y14686999D01*
X32767169Y14590000D01*
X32622000Y14493001D01*
X32597185Y14455862D01*
X32552632Y14447000D01*
X32223898Y14381611D01*
X32223897Y14381610D01*
X32223896Y14381610D01*
X32187783Y14357480D01*
X31851109Y14132522D01*
X31788233Y14038421D01*
X30171582Y12421769D01*
X30077478Y12358891D01*
X29884270Y12069733D01*
X29830359Y11989049D01*
X29828389Y11986101D01*
X29788865Y11787400D01*
X29740921Y11546369D01*
X29763000Y11435371D01*
X29763001Y3906003D01*
X29740921Y3795000D01*
X29828390Y3355266D01*
X29905811Y3239398D01*
X30077479Y2982478D01*
X30171581Y2919601D01*
X30649598Y2441585D01*
X30712478Y2347478D01*
X31085267Y2098389D01*
X31414001Y2033000D01*
X31414002Y2033000D01*
X31525000Y2010921D01*
X31635998Y2033000D01*
X34673403Y2033000D01*
X34784402Y2010921D01*
X34895401Y2033000D01*
X35224135Y2098389D01*
X35596924Y2347478D01*
X35846013Y2720267D01*
X35933481Y3160000D01*
X35911402Y3270999D01*
X35911402Y3558581D01*
X39058202Y6705380D01*
X39125667Y6660301D01*
X39614832Y6563000D01*
X39945168Y6563000D01*
X40434333Y6660301D01*
X40989049Y7030951D01*
X41050000Y7122170D01*
X41110951Y7030951D01*
X41665667Y6660301D01*
X42154832Y6563000D01*
X42485168Y6563000D01*
X42974333Y6660301D01*
X43529049Y7030951D01*
X43899699Y7585667D01*
X44029854Y8240000D01*
X43947000Y8656535D01*
X43947000Y10363465D01*
X44029854Y10780000D01*
X43947000Y11196535D01*
X43947000Y12903465D01*
X44029854Y13320000D01*
X43947000Y13736535D01*
X43947000Y15443465D01*
X44029854Y15860000D01*
X43947000Y16276535D01*
X43947000Y17983465D01*
X44029854Y18400000D01*
X43947000Y18816535D01*
X43947000Y19764304D01*
X43949016Y19767321D01*
X44013201Y20090000D01*
X44013201Y21790000D01*
X43949016Y22112679D01*
X43947000Y22115696D01*
X43947000Y23319764D01*
X43978873Y23480001D01*
X43947000Y23640238D01*
X43947000Y23640242D01*
X43852600Y24114824D01*
X43493001Y24653001D01*
X43357154Y24743771D01*
X41407000Y26693924D01*
X41407000Y28209276D01*
X41520000Y28186799D01*
X43120000Y28186799D01*
X43201448Y28203000D01*
X44559762Y28203000D01*
X44720000Y28171127D01*
X44880238Y28203000D01*
X44880242Y28203000D01*
X45354824Y28297400D01*
X45893001Y28656999D01*
X45983773Y28792849D01*
X46687164Y29496239D01*
X46823012Y29587010D01*
X46913783Y29722858D01*
X47098000Y29907075D01*
X47098001Y902000D01*
X902000Y902000D01*
X902000Y25113413D01*
X2383000Y25113413D01*
X2383000Y24386587D01*
X2583000Y23903744D01*
X2583001Y4932241D01*
X2551127Y4771998D01*
X2677400Y4137175D01*
X2787418Y3972522D01*
X3037000Y3598997D01*
X3172847Y3508227D01*
X4368227Y2312846D01*
X4458998Y2176998D01*
X4997175Y1817399D01*
X5471757Y1722999D01*
X5471760Y1722999D01*
X5631998Y1691126D01*
X5792236Y1722999D01*
X7991842Y1722999D01*
X8152080Y1691126D01*
X8312318Y1722999D01*
X8312322Y1722999D01*
X8786904Y1817399D01*
X9325081Y2176998D01*
X9415853Y2312848D01*
X10337153Y3234148D01*
X10473001Y3324918D01*
X10832600Y3863095D01*
X10919180Y4298362D01*
X11185667Y4120301D01*
X11674832Y4023000D01*
X12005168Y4023000D01*
X12256535Y4073000D01*
X18715243Y4073000D01*
X19189825Y4167400D01*
X19728002Y4526999D01*
X20087601Y5065176D01*
X20213875Y5700000D01*
X20087601Y6334824D01*
X19728002Y6873001D01*
X19582833Y6970000D01*
X19728002Y7066999D01*
X20087601Y7605176D01*
X20213875Y8240000D01*
X20087601Y8874824D01*
X19728002Y9413001D01*
X19582833Y9510000D01*
X19728002Y9606999D01*
X20087601Y10145176D01*
X20213875Y10780000D01*
X20087601Y11414824D01*
X19728002Y11953001D01*
X19582833Y12050000D01*
X19728002Y12146999D01*
X20087601Y12685176D01*
X20213875Y13320000D01*
X20087601Y13954824D01*
X19728002Y14493001D01*
X19582833Y14590000D01*
X19728002Y14686999D01*
X20087601Y15225176D01*
X20213875Y15860000D01*
X20087601Y16494824D01*
X19728002Y17033001D01*
X19582833Y17130000D01*
X19728002Y17226999D01*
X20087601Y17765176D01*
X20213875Y18400000D01*
X20087601Y19034824D01*
X19728002Y19573001D01*
X19582833Y19670000D01*
X19728002Y19766999D01*
X20087601Y20305176D01*
X20213875Y20940000D01*
X20087601Y21574824D01*
X19728002Y22113001D01*
X19582833Y22210000D01*
X19728002Y22306999D01*
X20087601Y22845176D01*
X20213875Y23480000D01*
X20087601Y24114824D01*
X19728002Y24653001D01*
X19582833Y24750000D01*
X19728002Y24846999D01*
X20087601Y25385176D01*
X20213875Y26020000D01*
X20087601Y26654824D01*
X19728002Y27193001D01*
X19582833Y27290000D01*
X19728002Y27386999D01*
X20087601Y27925176D01*
X20213875Y28560000D01*
X20087601Y29194824D01*
X19728002Y29733001D01*
X19582833Y29830000D01*
X19728002Y29926999D01*
X20087601Y30465176D01*
X20213875Y31100000D01*
X20087601Y31734824D01*
X19728002Y32273001D01*
X19189825Y32632600D01*
X18715243Y32727000D01*
X18394759Y32727000D01*
X17920177Y32632600D01*
X17382000Y32273001D01*
X17022401Y31734824D01*
X16896127Y31100000D01*
X17022401Y30465176D01*
X17382000Y29926999D01*
X17527169Y29830000D01*
X17382000Y29733001D01*
X17022401Y29194824D01*
X16896127Y28560000D01*
X17022401Y27925176D01*
X17382000Y27386999D01*
X17527169Y27290000D01*
X17382000Y27193001D01*
X17022401Y26654824D01*
X16896127Y26020000D01*
X17022401Y25385176D01*
X17382000Y24846999D01*
X17527169Y24750000D01*
X17382000Y24653001D01*
X17022401Y24114824D01*
X16896127Y23480000D01*
X17022401Y22845176D01*
X17208273Y22567000D01*
X16323925Y22567000D01*
X15759305Y23131619D01*
X15759304Y23131622D01*
X15301622Y23589304D01*
X15301620Y23589305D01*
X14373773Y24517151D01*
X14283001Y24653001D01*
X13744824Y25012600D01*
X13270242Y25107000D01*
X13270238Y25107000D01*
X13110000Y25138873D01*
X12949762Y25107000D01*
X12147639Y25107000D01*
X12293752Y25325674D01*
X12431862Y26020000D01*
X12293752Y26714326D01*
X11900448Y27302948D01*
X11311826Y27696252D01*
X10792763Y27799500D01*
X10347237Y27799500D01*
X9828174Y27696252D01*
X9754463Y27647000D01*
X8617740Y27647000D01*
X8457498Y27678874D01*
X8110845Y27609921D01*
X12097724Y31596799D01*
X13040000Y31596799D01*
X13362679Y31660984D01*
X13636233Y31843767D01*
X13819016Y32117321D01*
X13883201Y32440000D01*
X13883201Y34840000D01*
X13819016Y35162679D01*
X13636233Y35436233D01*
X13362679Y35619016D01*
X13040000Y35683201D01*
X10640000Y35683201D01*
X10317321Y35619016D01*
X10043767Y35436233D01*
X9860984Y35162679D01*
X9796799Y34840000D01*
X9796799Y33897724D01*
X7124020Y31224945D01*
X7117000Y31260237D01*
X7117000Y34516124D01*
X7462736Y34861860D01*
X7817000Y35717131D01*
X7817000Y36642869D01*
X7462736Y37498140D01*
X6808140Y38152736D01*
X5952869Y38507000D01*
X5027131Y38507000D01*
X4171860Y38152736D01*
X3517264Y37498140D01*
X3163000Y36642869D01*
X3163000Y35717131D01*
X3517264Y34861860D01*
X3863000Y34516124D01*
X3863001Y31773925D01*
X3667932Y31578857D01*
X3185088Y31378856D01*
X2671144Y30864912D01*
X2393000Y30193413D01*
X2393000Y29466587D01*
X2671144Y28795088D01*
X3185088Y28281144D01*
X3856587Y28003000D01*
X3902076Y28003000D01*
X3172850Y27273774D01*
X3036999Y27183001D01*
X2677400Y26644823D01*
X2583000Y26170241D01*
X2583000Y26170238D01*
X2551127Y26010000D01*
X2583000Y25849762D01*
X2583000Y25596256D01*
X2383000Y25113413D01*
X902000Y25113413D01*
X902000Y45098000D01*
X10269444Y45098000D01*
X9930608Y44590896D01*
G04 #@! TD*
M02*
