M48
;DRILL file {KiCad (5.0.1)-4} date 18/10/2020 21:08:42
;FORMAT={-:-/ absolute / metric / decimal}
FMAT,2
METRIC,TZ
T1C0.800
T2C1.000
T3C1.100
T4C1.200
T5C1.520
%
G90
G05
M71
T1
X42.32Y29.83
X42.32Y27.33
X18.555Y41.26
X18.555Y38.72
X18.555Y36.18
X18.555Y33.64
X18.555Y31.1
X18.555Y28.56
X18.555Y26.02
X18.555Y23.48
X18.555Y20.94
X18.555Y18.4
X18.555Y15.86
X18.555Y13.32
X18.555Y10.78
X18.555Y8.24
X18.555Y5.7
X33.795Y41.26
X33.795Y38.72
X33.795Y36.18
X33.795Y33.64
X33.795Y31.1
X33.795Y28.56
X33.795Y26.02
X33.795Y23.48
X33.795Y20.94
X33.795Y18.4
X33.795Y15.86
X33.795Y13.32
X33.795Y10.78
X33.795Y8.24
X33.795Y5.7
X37.24Y39.99
X37.24Y32.37
X41.05Y42.53
X41.05Y34.91
X14.38Y29.83
X14.38Y22.21
T2
X9.3Y18.4
X9.3Y15.86
X9.3Y13.32
X9.3Y10.78
X9.3Y8.24
X9.3Y5.7
X4.21Y24.75
X4.22Y29.83
X44.86Y20.94
X44.86Y18.4
X44.86Y15.86
X44.86Y13.32
X44.86Y10.78
X44.86Y8.24
X39.78Y20.94
X39.78Y18.4
X39.78Y15.86
X39.78Y13.32
X39.78Y10.78
X39.78Y8.24
X39.78Y5.7
X42.32Y20.94
X42.32Y18.4
X42.32Y15.86
X42.32Y13.32
X42.32Y10.78
X42.32Y8.24
X11.84Y18.4
X11.84Y15.86
X11.84Y13.32
X11.84Y10.78
X11.84Y8.24
X11.84Y5.7
X6.76Y18.4
X6.76Y15.86
X6.76Y13.32
X6.76Y10.78
X6.76Y8.24
X6.76Y5.7
T3
X10.57Y28.56
X10.57Y26.02
X10.57Y23.48
T4
X11.84Y43.8
X11.84Y33.64
T5
X5.49Y41.26
X5.49Y36.18
T0
M30
